<?xml version="1.0" encoding="utf-8" ?>
<svg baseProfile="full" height="512px" version="1.1" viewBox="0 0 512 512" width="512px" xmlns="http://www.w3.org/2000/svg" xmlns:ev="http://www.w3.org/2001/xml-events" xmlns:xlink="http://www.w3.org/1999/xlink"><defs /><rect fill="none" height="110" rx="4" stroke="#000000" stroke-width="4" width="110" x="201" y="201" /><rect fill="none" height="70" rx="2" stroke="#000000" stroke-width="2" width="70" x="221" y="221" /><line fill="none" stroke="#000000" stroke-linecap="round" stroke-width="4" x1="216" x2="216" y1="201" y2="181" /><line fill="none" stroke="#000000" stroke-linecap="round" stroke-width="4" x1="216" x2="216" y1="311" y2="331" /><line fill="none" stroke="#000000" stroke-linecap="round" stroke-width="4" x1="201" x2="181" y1="216" y2="216" /><line fill="none" stroke="#000000" stroke-linecap="round" stroke-width="4" x1="311" x2="331" y1="216" y2="216" /><line fill="none" stroke="#000000" stroke-linecap="round" stroke-width="4" x1="236" x2="236" y1="201" y2="181" /><line fill="none" stroke="#000000" stroke-linecap="round" stroke-width="4" x1="236" x2="236" y1="311" y2="331" /><line fill="none" stroke="#000000" stroke-linecap="round" stroke-width="4" x1="201" x2="181" y1="236" y2="236" /><line fill="none" stroke="#000000" stroke-linecap="round" stroke-width="4" x1="311" x2="331" y1="236" y2="236" /><line fill="none" stroke="#000000" stroke-linecap="round" stroke-width="4" x1="256" x2="256" y1="201" y2="181" /><line fill="none" stroke="#000000" stroke-linecap="round" stroke-width="4" x1="256" x2="256" y1="311" y2="331" /><line fill="none" stroke="#000000" stroke-linecap="round" stroke-width="4" x1="201" x2="181" y1="256" y2="256" /><line fill="none" stroke="#000000" stroke-linecap="round" stroke-width="4" x1="311" x2="331" y1="256" y2="256" /><line fill="none" stroke="#000000" stroke-linecap="round" stroke-width="4" x1="276" x2="276" y1="201" y2="181" /><line fill="none" stroke="#000000" stroke-linecap="round" stroke-width="4" x1="276" x2="276" y1="311" y2="331" /><line fill="none" stroke="#000000" stroke-linecap="round" stroke-width="4" x1="201" x2="181" y1="276" y2="276" /><line fill="none" stroke="#000000" stroke-linecap="round" stroke-width="4" x1="311" x2="331" y1="276" y2="276" /><line fill="none" stroke="#000000" stroke-linecap="round" stroke-width="4" x1="296" x2="296" y1="201" y2="181" /><line fill="none" stroke="#000000" stroke-linecap="round" stroke-width="4" x1="296" x2="296" y1="311" y2="331" /><line fill="none" stroke="#000000" stroke-linecap="round" stroke-width="4" x1="201" x2="181" y1="296" y2="296" /><line fill="none" stroke="#000000" stroke-linecap="round" stroke-width="4" x1="311" x2="331" y1="296" y2="296" /></svg>