<?xml version="1.0" encoding="utf-8" ?>
<svg baseProfile="full" height="512px" version="1.1" viewBox="0 0 512 512" width="512px" xmlns="http://www.w3.org/2000/svg" xmlns:ev="http://www.w3.org/2001/xml-events" xmlns:xlink="http://www.w3.org/1999/xlink"><defs /><rect fill="white" height="300" rx="0" stroke="#000000" stroke-width="4" width="512" x="0" y="0" /><rect fill="white" height="212" rx="0" stroke="#000000" stroke-width="4" width="512" x="0" y="300" /><line fill="none" stroke="#000000" stroke-linecap="round" stroke-width="4" x1="0" x2="512" y1="300" y2="300" /><line fill="none" stroke="#000000" stroke-linecap="round" stroke-width="3" x1="0" x2="512" y1="512" y2="512" /><line fill="none" stroke="#000000" stroke-linecap="round" stroke-width="3" x1="0" x2="25" y1="406" y2="406" /><line fill="none" stroke="#000000" stroke-linecap="round" stroke-width="3" x1="40" x2="65" y1="406" y2="406" /><line fill="none" stroke="#000000" stroke-linecap="round" stroke-width="3" x1="80" x2="105" y1="406" y2="406" /><line fill="none" stroke="#000000" stroke-linecap="round" stroke-width="3" x1="120" x2="145" y1="406" y2="406" /><line fill="none" stroke="#000000" stroke-linecap="round" stroke-width="3" x1="160" x2="185" y1="406" y2="406" /><line fill="none" stroke="#000000" stroke-linecap="round" stroke-width="3" x1="200" x2="225" y1="406" y2="406" /><line fill="none" stroke="#000000" stroke-linecap="round" stroke-width="3" x1="240" x2="265" y1="406" y2="406" /><line fill="none" stroke="#000000" stroke-linecap="round" stroke-width="3" x1="280" x2="305" y1="406" y2="406" /><line fill="none" stroke="#000000" stroke-linecap="round" stroke-width="3" x1="320" x2="345" y1="406" y2="406" /><line fill="none" stroke="#000000" stroke-linecap="round" stroke-width="3" x1="360" x2="385" y1="406" y2="406" /><line fill="none" stroke="#000000" stroke-linecap="round" stroke-width="3" x1="400" x2="425" y1="406" y2="406" /><line fill="none" stroke="#000000" stroke-linecap="round" stroke-width="3" x1="440" x2="465" y1="406" y2="406" /><line fill="none" stroke="#000000" stroke-linecap="round" stroke-width="3" x1="480" x2="505" y1="406" y2="406" /><line fill="none" stroke="#000000" stroke-linecap="round" stroke-width="4" x1="100" x2="100" y1="300" y2="170" /><line fill="none" stroke="#000000" stroke-linecap="round" stroke-width="4" x1="280" x2="280" y1="300" y2="170" /><path d="M 80 170 L 190 140 L 300 170" fill="none" stroke="#000000" stroke-linecap="round" stroke-linejoin="round" stroke-width="4" /><line fill="none" stroke="#000000" stroke-linecap="round" stroke-width="3" x1="100" x2="280" y1="170" y2="170" /><line fill="none" stroke="#000000" stroke-linecap="round" stroke-width="4" x1="320" x2="320" y1="300" y2="160" /><rect fill="none" height="40" rx="4" stroke="#000000" stroke-width="4" width="40" x="300" y="160" /><line fill="none" stroke="#000000" stroke-linecap="round" stroke-width="4" x1="130" x2="250" y1="290" y2="290" /><line fill="none" stroke="#000000" stroke-linecap="round" stroke-width="4" x1="145" x2="145" y1="290" y2="310" /><line fill="none" stroke="#000000" stroke-linecap="round" stroke-width="4" x1="235" x2="235" y1="290" y2="310" /></svg>