<?xml version="1.0" encoding="utf-8" ?>
<svg baseProfile="full" height="512px" version="1.1" viewBox="0 0 512 512" width="512px" xmlns="http://www.w3.org/2000/svg" xmlns:ev="http://www.w3.org/2001/xml-events" xmlns:xlink="http://www.w3.org/1999/xlink"><defs /><rect fill="white" height="200" rx="0" stroke="#000000" stroke-width="4" width="512" x="0" y="0" /><rect fill="white" height="212" rx="0" stroke="#000000" stroke-width="4" width="512" x="0" y="300" /><path d="M 0 340 Q 60 330 120 340 Q 180 350 240 340 Q 300 330 360 340 Q 420 350 480 340 L 512 340" fill="none" stroke="#000000" stroke-linecap="round" stroke-linejoin="round" stroke-width="3" /><path d="M 0 400 Q 60 390 120 400 Q 180 410 240 400 Q 300 390 360 400 Q 420 410 480 400 L 512 400" fill="none" stroke="#000000" stroke-linecap="round" stroke-linejoin="round" stroke-width="3" /><rect fill="none" height="100" rx="4" stroke="#000000" stroke-width="4" width="472" x="20" y="200" /><line fill="none" stroke="#000000" stroke-linecap="round" stroke-width="4" x1="40" x2="40" y1="200" y2="140" /><line fill="none" stroke="#000000" stroke-linecap="round" stroke-width="4" x1="472" x2="472" y1="200" y2="140" /><line fill="none" stroke="#000000" stroke-linecap="round" stroke-width="4" x1="40" x2="472" y1="140" y2="140" /><line fill="none" stroke="#000000" stroke-linecap="round" stroke-width="2.5" x1="80" x2="80" y1="140" y2="200" /><line fill="none" stroke="#000000" stroke-linecap="round" stroke-width="2.5" x1="120" x2="120" y1="140" y2="200" /><line fill="none" stroke="#000000" stroke-linecap="round" stroke-width="2.5" x1="160" x2="160" y1="140" y2="200" /><line fill="none" stroke="#000000" stroke-linecap="round" stroke-width="2.5" x1="200" x2="200" y1="140" y2="200" /><line fill="none" stroke="#000000" stroke-linecap="round" stroke-width="2.5" x1="240" x2="240" y1="140" y2="200" /><line fill="none" stroke="#000000" stroke-linecap="round" stroke-width="2.5" x1="280" x2="280" y1="140" y2="200" /><line fill="none" stroke="#000000" stroke-linecap="round" stroke-width="2.5" x1="320" x2="320" y1="140" y2="200" /><line fill="none" stroke="#000000" stroke-linecap="round" stroke-width="2.5" x1="360" x2="360" y1="140" y2="200" /><line fill="none" stroke="#000000" stroke-linecap="round" stroke-width="2.5" x1="400" x2="400" y1="140" y2="200" /><line fill="none" stroke="#000000" stroke-linecap="round" stroke-width="2.5" x1="440" x2="440" y1="140" y2="200" /><rect fill="none" height="212" rx="0" stroke="#000000" stroke-width="4" width="30" x="100" y="300" /><rect fill="none" height="212" rx="0" stroke="#000000" stroke-width="4" width="30" x="382" y="300" /><rect fill="none" height="20" rx="2" stroke="#000000" stroke-width="4" width="50" x="90" y="290" /><rect fill="none" height="20" rx="2" stroke="#000000" stroke-width="4" width="50" x="372" y="290" /></svg>