<?xml version="1.0" encoding="utf-8" ?>
<svg baseProfile="full" height="512px" version="1.1" viewBox="0 0 512 512" width="512px" xmlns="http://www.w3.org/2000/svg" xmlns:ev="http://www.w3.org/2001/xml-events" xmlns:xlink="http://www.w3.org/1999/xlink"><defs /><line fill="none" stroke="#000000" stroke-linecap="round" stroke-width="4" x1="0" x2="512" y1="380" y2="380" /><line fill="none" stroke="#000000" stroke-linecap="round" stroke-width="4" x1="40" x2="40" y1="380" y2="120" /><line fill="none" stroke="#000000" stroke-linecap="round" stroke-width="4" x1="472" x2="472" y1="380" y2="120" /><line fill="none" stroke="#000000" stroke-linecap="round" stroke-width="4" x1="40" x2="472" y1="120" y2="120" /><rect fill="none" height="80" rx="4" stroke="#000000" stroke-width="4" width="100" x="70" y="170" /><line fill="none" stroke="#000000" stroke-linecap="round" stroke-width="3" x1="120" x2="120" y1="170" y2="250" /><line fill="none" stroke="#000000" stroke-linecap="round" stroke-width="3" x1="70" x2="170" y1="210" y2="210" /><rect fill="none" height="140" rx="3" stroke="#000000" stroke-width="4" width="70" x="360" y="240" /><circle cx="418" cy="315" fill="#000000" r="5" stroke="#000000" stroke-width="3" /><line fill="none" stroke="#000000" stroke-linecap="round" stroke-width="4" x1="100" x2="260" y1="340" y2="340" /><line fill="none" stroke="#000000" stroke-linecap="round" stroke-width="4" x1="130" x2="130" y1="340" y2="380" /><line fill="none" stroke="#000000" stroke-linecap="round" stroke-width="4" x1="230" x2="230" y1="340" y2="380" /><rect fill="none" height="80" rx="2" stroke="#000000" stroke-width="4" width="40" x="270" y="300" /><line fill="none" stroke="#000000" stroke-linecap="round" stroke-width="3" x1="270" x2="270" y1="300" y2="340" /></svg>