<?xml version="1.0" encoding="utf-8" ?>
<svg baseProfile="full" height="512px" version="1.1" viewBox="0 0 512 512" width="512px" xmlns="http://www.w3.org/2000/svg" xmlns:ev="http://www.w3.org/2001/xml-events" xmlns:xlink="http://www.w3.org/1999/xlink"><defs /><line fill="none" stroke="#000000" stroke-linecap="round" stroke-width="4" x1="0" x2="512" y1="380" y2="380" /><line fill="none" stroke="#000000" stroke-linecap="round" stroke-width="4" x1="0" x2="0" y1="380" y2="100" /><line fill="none" stroke="#000000" stroke-linecap="round" stroke-width="4" x1="512" x2="512" y1="380" y2="100" /><line fill="none" stroke="#000000" stroke-linecap="round" stroke-width="4" x1="0" x2="512" y1="100" y2="100" /><rect fill="none" height="12" rx="2" stroke="#000000" stroke-width="4" width="280" x="140" y="310" /><line fill="none" stroke="#000000" stroke-linecap="round" stroke-width="4" x1="170" x2="170" y1="322" y2="380" /><line fill="none" stroke="#000000" stroke-linecap="round" stroke-width="4" x1="390" x2="390" y1="322" y2="380" /><rect fill="none" height="60" rx="3" stroke="#000000" stroke-width="4" width="80" x="230" y="220" /><line fill="none" stroke="#000000" stroke-linecap="round" stroke-width="4" x1="270" x2="270" y1="280" y2="310" /><line fill="none" stroke="#000000" stroke-linecap="round" stroke-width="4" x1="250" x2="290" y1="310" y2="310" /><path d="M 220 340 Q 220 370 240 380" fill="none" stroke="#000000" stroke-linecap="round" stroke-linejoin="round" stroke-width="4" /><path d="M 320 340 Q 320 370 300 380" fill="none" stroke="#000000" stroke-linecap="round" stroke-linejoin="round" stroke-width="4" /><line fill="none" stroke="#000000" stroke-linecap="round" stroke-width="4" x1="220" x2="320" y1="340" y2="340" /><line fill="none" stroke="#000000" stroke-linecap="round" stroke-width="4" x1="270" x2="270" y1="340" y2="290" /><line fill="none" stroke="#000000" stroke-linecap="round" stroke-width="4" x1="60" x2="160" y1="200" y2="200" /><rect fill="none" height="35" rx="2" stroke="#000000" stroke-width="3" width="30" x="70" y="165" /><rect fill="none" height="30" rx="2" stroke="#000000" stroke-width="3" width="35" x="115" y="170" /></svg>