<?xml version="1.0" encoding="utf-8" ?>
<svg baseProfile="full" height="512px" version="1.1" viewBox="0 0 512 512" width="512px" xmlns="http://www.w3.org/2000/svg" xmlns:ev="http://www.w3.org/2001/xml-events" xmlns:xlink="http://www.w3.org/1999/xlink"><defs /><rect fill="white" height="200" rx="0" stroke="#000000" stroke-width="4" width="512" x="0" y="0" /><line fill="none" stroke="#000000" stroke-linecap="round" stroke-width="4" x1="0" x2="512" y1="200" y2="200" /><rect fill="white" height="200" rx="0" stroke="#000000" stroke-width="4" width="512" x="0" y="200" /><line fill="none" stroke="#000000" stroke-linecap="round" stroke-width="4" x1="0" x2="512" y1="400" y2="400" /><path d="M 0 260 Q 60 250 120 260 Q 180 270 240 260 Q 300 250 360 260 Q 420 270 480 260 L 512 260" fill="none" stroke="#000000" stroke-linecap="round" stroke-linejoin="round" stroke-width="3" /><path d="M 0 320 Q 60 310 120 320 Q 180 330 240 320 Q 300 310 360 320 Q 420 330 480 320 L 512 320" fill="none" stroke="#000000" stroke-linecap="round" stroke-linejoin="round" stroke-width="3" /><line fill="none" stroke="#000000" stroke-linecap="round" stroke-width="4" x1="140" x2="140" y1="200" y2="400" /><line fill="none" stroke="#000000" stroke-linecap="round" stroke-width="4" x1="372" x2="372" y1="200" y2="400" /><line fill="none" stroke="#000000" stroke-linecap="round" stroke-width="4" x1="140" x2="372" y1="200" y2="200" /><line fill="none" stroke="#000000" stroke-linecap="round" stroke-width="3" x1="140" x2="372" y1="240" y2="240" /><line fill="none" stroke="#000000" stroke-linecap="round" stroke-width="2.5" x1="160" x2="160" y1="200" y2="220" /><line fill="none" stroke="#000000" stroke-linecap="round" stroke-width="2.5" x1="200" x2="200" y1="200" y2="220" /><line fill="none" stroke="#000000" stroke-linecap="round" stroke-width="2.5" x1="240" x2="240" y1="200" y2="220" /><line fill="none" stroke="#000000" stroke-linecap="round" stroke-width="2.5" x1="280" x2="280" y1="200" y2="220" /><line fill="none" stroke="#000000" stroke-linecap="round" stroke-width="2.5" x1="320" x2="320" y1="200" y2="220" /><line fill="none" stroke="#000000" stroke-linecap="round" stroke-width="2.5" x1="360" x2="360" y1="200" y2="220" /><line fill="none" stroke="#000000" stroke-linecap="round" stroke-width="4" x1="60" x2="60" y1="200" y2="140" /><circle cx="60" cy="120" fill="none" r="25" stroke="#000000" stroke-width="4" /><line fill="none" stroke="#000000" stroke-linecap="round" stroke-width="4" x1="440" x2="440" y1="200" y2="150" /><circle cx="440" cy="130" fill="none" r="25" stroke="#000000" stroke-width="4" /></svg>