<?xml version="1.0" encoding="utf-8" ?>
<svg baseProfile="full" height="512px" version="1.1" viewBox="0 0 512 512" width="512px" xmlns="http://www.w3.org/2000/svg" xmlns:ev="http://www.w3.org/2001/xml-events" xmlns:xlink="http://www.w3.org/1999/xlink"><defs /><rect fill="white" height="250" rx="0" stroke="#000000" stroke-width="4" width="512" x="0" y="0" /><line fill="none" stroke="#000000" stroke-linecap="round" stroke-width="4" x1="0" x2="512" y1="350" y2="350" /><rect fill="white" height="162" rx="0" stroke="#000000" stroke-width="4" width="512" x="0" y="350" /><line fill="none" stroke="#000000" stroke-linecap="round" stroke-width="3" x1="0" x2="512" y1="512" y2="512" /><line fill="none" stroke="#000000" stroke-linecap="round" stroke-width="4" x1="0" x2="512" y1="300" y2="300" /><line fill="none" stroke="#000000" stroke-linecap="round" stroke-width="4" x1="0" x2="512" y1="320" y2="320" /><line fill="none" stroke="#000000" stroke-linecap="round" stroke-width="2" x1="30" x2="30" y1="295" y2="325" /><line fill="none" stroke="#000000" stroke-linecap="round" stroke-width="2" x1="60" x2="60" y1="295" y2="325" /><line fill="none" stroke="#000000" stroke-linecap="round" stroke-width="2" x1="90" x2="90" y1="295" y2="325" /><line fill="none" stroke="#000000" stroke-linecap="round" stroke-width="2" x1="120" x2="120" y1="295" y2="325" /><line fill="none" stroke="#000000" stroke-linecap="round" stroke-width="2" x1="150" x2="150" y1="295" y2="325" /><line fill="none" stroke="#000000" stroke-linecap="round" stroke-width="2" x1="180" x2="180" y1="295" y2="325" /><line fill="none" stroke="#000000" stroke-linecap="round" stroke-width="2" x1="210" x2="210" y1="295" y2="325" /><line fill="none" stroke="#000000" stroke-linecap="round" stroke-width="2" x1="240" x2="240" y1="295" y2="325" /><line fill="none" stroke="#000000" stroke-linecap="round" stroke-width="2" x1="270" x2="270" y1="295" y2="325" /><line fill="none" stroke="#000000" stroke-linecap="round" stroke-width="2" x1="300" x2="300" y1="295" y2="325" /><line fill="none" stroke="#000000" stroke-linecap="round" stroke-width="2" x1="330" x2="330" y1="295" y2="325" /><line fill="none" stroke="#000000" stroke-linecap="round" stroke-width="2" x1="360" x2="360" y1="295" y2="325" /><line fill="none" stroke="#000000" stroke-linecap="round" stroke-width="2" x1="390" x2="390" y1="295" y2="325" /><line fill="none" stroke="#000000" stroke-linecap="round" stroke-width="2" x1="420" x2="420" y1="295" y2="325" /><line fill="none" stroke="#000000" stroke-linecap="round" stroke-width="2" x1="450" x2="450" y1="295" y2="325" /><line fill="none" stroke="#000000" stroke-linecap="round" stroke-width="2" x1="480" x2="480" y1="295" y2="325" /><line fill="none" stroke="#000000" stroke-linecap="round" stroke-width="2" x1="510" x2="510" y1="295" y2="325" /><line fill="none" stroke="#000000" stroke-linecap="round" stroke-width="4" x1="60" x2="60" y1="250" y2="160" /><line fill="none" stroke="#000000" stroke-linecap="round" stroke-width="4" x1="400" x2="400" y1="250" y2="160" /><path d="M 40 160 L 256 120 L 472 160" fill="none" stroke="#000000" stroke-linecap="round" stroke-linejoin="round" stroke-width="4" /><line fill="none" stroke="#000000" stroke-linecap="round" stroke-width="4" x1="140" x2="300" y1="340" y2="340" /><line fill="none" stroke="#000000" stroke-linecap="round" stroke-width="4" x1="160" x2="160" y1="340" y2="365" /><line fill="none" stroke="#000000" stroke-linecap="round" stroke-width="4" x1="280" x2="280" y1="340" y2="365" /><line fill="none" stroke="#000000" stroke-linecap="round" stroke-width="3" x1="0" x2="512" y1="250" y2="250" /></svg>