<?xml version="1.0" encoding="utf-8" ?>
<svg baseProfile="full" height="512px" version="1.1" viewBox="0 0 512 512" width="512px" xmlns="http://www.w3.org/2000/svg" xmlns:ev="http://www.w3.org/2001/xml-events" xmlns:xlink="http://www.w3.org/1999/xlink"><defs /><rect fill="white" height="250" rx="0" stroke="#000000" stroke-width="4" width="512" x="0" y="0" /><rect fill="white" height="262" rx="0" stroke="#000000" stroke-width="4" width="512" x="0" y="250" /><line fill="none" stroke="#000000" stroke-linecap="round" stroke-width="4" x1="0" x2="512" y1="250" y2="250" /><line fill="none" stroke="#000000" stroke-linecap="round" stroke-width="3" x1="0" x2="512" y1="512" y2="512" /><line fill="none" stroke="#000000" stroke-linecap="round" stroke-width="3" x1="0" x2="25" y1="381" y2="381" /><line fill="none" stroke="#000000" stroke-linecap="round" stroke-width="3" x1="40" x2="65" y1="381" y2="381" /><line fill="none" stroke="#000000" stroke-linecap="round" stroke-width="3" x1="80" x2="105" y1="381" y2="381" /><line fill="none" stroke="#000000" stroke-linecap="round" stroke-width="3" x1="120" x2="145" y1="381" y2="381" /><line fill="none" stroke="#000000" stroke-linecap="round" stroke-width="3" x1="160" x2="185" y1="381" y2="381" /><line fill="none" stroke="#000000" stroke-linecap="round" stroke-width="3" x1="200" x2="225" y1="381" y2="381" /><line fill="none" stroke="#000000" stroke-linecap="round" stroke-width="3" x1="240" x2="265" y1="381" y2="381" /><line fill="none" stroke="#000000" stroke-linecap="round" stroke-width="3" x1="280" x2="305" y1="381" y2="381" /><line fill="none" stroke="#000000" stroke-linecap="round" stroke-width="3" x1="320" x2="345" y1="381" y2="381" /><line fill="none" stroke="#000000" stroke-linecap="round" stroke-width="3" x1="360" x2="385" y1="381" y2="381" /><line fill="none" stroke="#000000" stroke-linecap="round" stroke-width="3" x1="400" x2="425" y1="381" y2="381" /><line fill="none" stroke="#000000" stroke-linecap="round" stroke-width="3" x1="440" x2="465" y1="381" y2="381" /><line fill="none" stroke="#000000" stroke-linecap="round" stroke-width="3" x1="480" x2="505" y1="381" y2="381" /><rect fill="none" height="130" rx="2" stroke="#000000" stroke-width="4" width="80" x="30" y="120" /><rect fill="none" height="170" rx="2" stroke="#000000" stroke-width="4" width="70" x="130" y="80" /><rect fill="none" height="150" rx="2" stroke="#000000" stroke-width="4" width="90" x="220" y="100" /><rect fill="none" height="190" rx="2" stroke="#000000" stroke-width="4" width="60" x="330" y="60" /><rect fill="none" height="140" rx="2" stroke="#000000" stroke-width="4" width="80" x="410" y="110" /><rect fill="none" height="15" rx="1" stroke="#000000" stroke-width="2" width="15" x="50" y="30" /><rect fill="none" height="15" rx="1" stroke="#000000" stroke-width="2" width="15" x="80" y="30" /><rect fill="none" height="15" rx="1" stroke="#000000" stroke-width="2" width="15" x="110" y="30" /><rect fill="none" height="15" rx="1" stroke="#000000" stroke-width="2" width="15" x="140" y="30" /><rect fill="none" height="15" rx="1" stroke="#000000" stroke-width="2" width="15" x="150" y="130" /><rect fill="none" height="15" rx="1" stroke="#000000" stroke-width="2" width="15" x="180" y="130" /><rect fill="none" height="15" rx="1" stroke="#000000" stroke-width="2" width="15" x="210" y="130" /><rect fill="none" height="15" rx="1" stroke="#000000" stroke-width="2" width="15" x="240" y="130" /><rect fill="none" height="15" rx="1" stroke="#000000" stroke-width="2" width="15" x="240" y="220" /><rect fill="none" height="15" rx="1" stroke="#000000" stroke-width="2" width="15" x="270" y="220" /><rect fill="none" height="15" rx="1" stroke="#000000" stroke-width="2" width="15" x="300" y="220" /><rect fill="none" height="15" rx="1" stroke="#000000" stroke-width="2" width="15" x="330" y="220" /><rect fill="none" height="15" rx="1" stroke="#000000" stroke-width="2" width="15" x="350" y="330" /><rect fill="none" height="15" rx="1" stroke="#000000" stroke-width="2" width="15" x="380" y="330" /><rect fill="none" height="15" rx="1" stroke="#000000" stroke-width="2" width="15" x="410" y="330" /><rect fill="none" height="15" rx="1" stroke="#000000" stroke-width="2" width="15" x="440" y="330" /><rect fill="none" height="15" rx="1" stroke="#000000" stroke-width="2" width="15" x="430" y="410" /><rect fill="none" height="15" rx="1" stroke="#000000" stroke-width="2" width="15" x="460" y="410" /><rect fill="none" height="15" rx="1" stroke="#000000" stroke-width="2" width="15" x="490" y="410" /><rect fill="none" height="15" rx="1" stroke="#000000" stroke-width="2" width="15" x="520" y="410" /><line fill="none" stroke="#000000" stroke-linecap="round" stroke-width="4" x1="470" x2="470" y1="250" y2="180" /><rect fill="none" height="70" rx="6" stroke="#000000" stroke-width="4" width="24" x="458" y="180" /><circle cx="470" cy="198" fill="none" r="6" stroke="#000000" stroke-width="3" /><circle cx="470" cy="215" fill="none" r="6" stroke="#000000" stroke-width="3" /><circle cx="470" cy="232" fill="none" r="6" stroke="#000000" stroke-width="3" /><line fill="none" stroke="#000000" stroke-linecap="round" stroke-width="4" x1="50" x2="50" y1="250" y2="150" /><path d="M 40 150 L 50 140 L 60 150" fill="none" stroke="#000000" stroke-linecap="round" stroke-linejoin="round" stroke-width="4" /></svg>