<?xml version="1.0" encoding="utf-8" ?>
<svg baseProfile="full" height="512px" version="1.1" viewBox="0 0 512 512" width="512px" xmlns="http://www.w3.org/2000/svg" xmlns:ev="http://www.w3.org/2001/xml-events" xmlns:xlink="http://www.w3.org/1999/xlink"><defs /><line fill="none" stroke="#000000" stroke-linecap="round" stroke-width="4" x1="0" x2="512" y1="400" y2="400" /><line fill="none" stroke="#000000" stroke-linecap="round" stroke-width="4" x1="0" x2="512" y1="80" y2="80" /><line fill="none" stroke="#000000" stroke-linecap="round" stroke-width="3" x1="0" x2="0" y1="80" y2="400" /><line fill="none" stroke="#000000" stroke-linecap="round" stroke-width="3" x1="512" x2="512" y1="80" y2="400" /><rect fill="none" height="10" rx="2" stroke="#000000" stroke-width="4" width="200" x="30" y="330" /><line fill="none" stroke="#000000" stroke-linecap="round" stroke-width="4" x1="50" x2="50" y1="340" y2="400" /><line fill="none" stroke="#000000" stroke-linecap="round" stroke-width="4" x1="210" x2="210" y1="340" y2="400" /><rect fill="none" height="50" rx="3" stroke="#000000" stroke-width="4" width="70" x="60" y="250" /><line fill="none" stroke="#000000" stroke-linecap="round" stroke-width="4" x1="95" x2="95" y1="300" y2="330" /><rect fill="none" height="50" rx="3" stroke="#000000" stroke-width="4" width="70" x="150" y="250" /><line fill="none" stroke="#000000" stroke-linecap="round" stroke-width="4" x1="185" x2="185" y1="300" y2="330" /><rect fill="none" height="10" rx="2" stroke="#000000" stroke-width="4" width="200" x="280" y="330" /><line fill="none" stroke="#000000" stroke-linecap="round" stroke-width="4" x1="300" x2="300" y1="340" y2="400" /><line fill="none" stroke="#000000" stroke-linecap="round" stroke-width="4" x1="460" x2="460" y1="340" y2="400" /><rect fill="none" height="230" rx="3" stroke="#000000" stroke-width="4" width="50" x="350" y="100" /><rect fill="none" height="230" rx="3" stroke="#000000" stroke-width="4" width="50" x="410" y="100" /><line fill="none" stroke="#000000" stroke-linecap="round" stroke-width="2" x1="355" x2="395" y1="120" y2="120" /><line fill="none" stroke="#000000" stroke-linecap="round" stroke-width="2" x1="415" x2="455" y1="120" y2="120" /><line fill="none" stroke="#000000" stroke-linecap="round" stroke-width="2" x1="355" x2="395" y1="145" y2="145" /><line fill="none" stroke="#000000" stroke-linecap="round" stroke-width="2" x1="415" x2="455" y1="145" y2="145" /><line fill="none" stroke="#000000" stroke-linecap="round" stroke-width="2" x1="355" x2="395" y1="170" y2="170" /><line fill="none" stroke="#000000" stroke-linecap="round" stroke-width="2" x1="415" x2="455" y1="170" y2="170" /><line fill="none" stroke="#000000" stroke-linecap="round" stroke-width="2" x1="355" x2="395" y1="195" y2="195" /><line fill="none" stroke="#000000" stroke-linecap="round" stroke-width="2" x1="415" x2="455" y1="195" y2="195" /><line fill="none" stroke="#000000" stroke-linecap="round" stroke-width="2" x1="355" x2="395" y1="220" y2="220" /><line fill="none" stroke="#000000" stroke-linecap="round" stroke-width="2" x1="415" x2="455" y1="220" y2="220" /><line fill="none" stroke="#000000" stroke-linecap="round" stroke-width="2" x1="355" x2="395" y1="245" y2="245" /><line fill="none" stroke="#000000" stroke-linecap="round" stroke-width="2" x1="415" x2="455" y1="245" y2="245" /><line fill="none" stroke="#000000" stroke-linecap="round" stroke-width="2" x1="355" x2="395" y1="270" y2="270" /><line fill="none" stroke="#000000" stroke-linecap="round" stroke-width="2" x1="415" x2="455" y1="270" y2="270" /><line fill="none" stroke="#000000" stroke-linecap="round" stroke-width="2" x1="355" x2="395" y1="295" y2="295" /><line fill="none" stroke="#000000" stroke-linecap="round" stroke-width="2" x1="415" x2="455" y1="295" y2="295" /><path d="M 270 350 Q 300 370 330 350 Q 350 340 370 360" fill="none" stroke="#000000" stroke-linecap="round" stroke-linejoin="round" stroke-width="3" /><path d="M 270 345 Q 295 365 320 350" fill="none" stroke="#000000" stroke-linecap="round" stroke-linejoin="round" stroke-width="2.5" /></svg>