<?xml version="1.0" encoding="utf-8" ?>
<svg baseProfile="full" height="512px" version="1.1" viewBox="0 0 512 512" width="512px" xmlns="http://www.w3.org/2000/svg" xmlns:ev="http://www.w3.org/2001/xml-events" xmlns:xlink="http://www.w3.org/1999/xlink"><defs /><rect fill="white" height="300" rx="0" stroke="#000000" stroke-width="4" width="512" x="0" y="0" /><line fill="none" stroke="#000000" stroke-linecap="round" stroke-width="4" x1="0" x2="512" y1="300" y2="300" /><line fill="none" stroke="#000000" stroke-linecap="round" stroke-width="3" x1="256" x2="256" y1="300" y2="512" /><line fill="none" stroke="#000000" stroke-linecap="round" stroke-width="3" x1="220" x2="220" y1="300" y2="512" /><rect fill="none" height="80" rx="2" stroke="#000000" stroke-width="4" width="100" x="60" y="220" /><path d="M 50 220 L 110 170 L 170 220" fill="none" stroke="#000000" stroke-linecap="round" stroke-linejoin="round" stroke-width="4" /><rect fill="none" height="40" rx="2" stroke="#000000" stroke-width="3" width="30" x="95" y="260" /><rect fill="none" height="100" rx="2" stroke="#000000" stroke-width="4" width="120" x="320" y="200" /><path d="M 310 200 L 380 140 L 450 200" fill="none" stroke="#000000" stroke-linecap="round" stroke-linejoin="round" stroke-width="4" /><rect fill="none" height="50" rx="2" stroke="#000000" stroke-width="3" width="30" x="360" y="250" /><line fill="none" stroke="#000000" stroke-linecap="round" stroke-width="4" x1="230" x2="230" y1="300" y2="230" /><circle cx="230" cy="210" fill="none" r="25" stroke="#000000" stroke-width="4" /><line fill="none" stroke="#000000" stroke-linecap="round" stroke-width="4" x1="290" x2="290" y1="300" y2="240" /><circle cx="290" cy="220" fill="none" r="25" stroke="#000000" stroke-width="4" /><line fill="none" stroke="#000000" stroke-linecap="round" stroke-width="2.5" x1="60" x2="60" y1="350" y2="370" /><line fill="none" stroke="#000000" stroke-linecap="round" stroke-width="2.5" x1="85" x2="85" y1="350" y2="370" /><line fill="none" stroke="#000000" stroke-linecap="round" stroke-width="2.5" x1="110" x2="110" y1="350" y2="370" /><line fill="none" stroke="#000000" stroke-linecap="round" stroke-width="2.5" x1="135" x2="135" y1="350" y2="370" /><line fill="none" stroke="#000000" stroke-linecap="round" stroke-width="2.5" x1="160" x2="160" y1="350" y2="370" /><line fill="none" stroke="#000000" stroke-linecap="round" stroke-width="2.5" x1="60" x2="165" y1="355" y2="355" /><line fill="none" stroke="#000000" stroke-linecap="round" stroke-width="2.5" x1="60" x2="165" y1="365" y2="365" /></svg>