<?xml version="1.0" encoding="utf-8" ?>
<svg baseProfile="full" height="512px" version="1.1" viewBox="0 0 512 512" width="512px" xmlns="http://www.w3.org/2000/svg" xmlns:ev="http://www.w3.org/2001/xml-events" xmlns:xlink="http://www.w3.org/1999/xlink"><defs /><circle cx="216" cy="410" fill="none" r="28" stroke="#000000" stroke-width="4" /><circle cx="306" cy="410" fill="none" r="28" stroke="#000000" stroke-width="4" /><line fill="none" stroke="#000000" stroke-linecap="round" stroke-width="4" x1="238" x2="251" y1="368" y2="395" /><line fill="none" stroke="#000000" stroke-linecap="round" stroke-width="4" x1="251" x2="216" y1="395" y2="410" /><line fill="none" stroke="#000000" stroke-linecap="round" stroke-width="4" x1="251" x2="288" y1="395" y2="380" /><line fill="none" stroke="#000000" stroke-linecap="round" stroke-width="4" x1="288" x2="306" y1="380" y2="410" /><line fill="none" stroke="#000000" stroke-linecap="round" stroke-width="4" x1="238" x2="288" y1="368" y2="380" /><line fill="none" stroke="#000000" stroke-linecap="round" stroke-width="4" x1="238" x2="216" y1="368" y2="410" /><line fill="none" stroke="#000000" stroke-linecap="round" stroke-width="4" x1="290" x2="304" y1="367" y2="379" /><line fill="none" stroke="#000000" stroke-linecap="round" stroke-width="4" x1="226" x2="250" y1="366" y2="366" /><circle cx="256" cy="211" fill="none" r="32.0" stroke="#000000" stroke-width="4" /><line fill="none" stroke="#000000" stroke-linecap="round" stroke-width="4" x1="256" x2="256" y1="243.0" y2="363.0" /><line fill="none" stroke="#000000" stroke-linecap="round" stroke-width="4" x1="248.0" x2="224.0585899672032" y1="253.0" y2="318.7784834550136" /><line fill="none" stroke="#000000" stroke-linecap="round" stroke-width="4" x1="224.0585899672032" x2="282.01413954454733" y1="318.7784834550136" y2="334.3076261611648" /><line fill="none" stroke="#000000" stroke-linecap="round" stroke-width="4" x1="264.0" x2="287.9414100327968" y1="253.0" y2="318.7784834550136" /><line fill="none" stroke="#000000" stroke-linecap="round" stroke-width="4" x1="287.9414100327968" x2="345.8969596101409" y1="318.7784834550136" y2="334.3076261611648" /><line fill="none" stroke="#000000" stroke-linecap="round" stroke-width="4" x1="246.0" x2="273.3616114660535" y1="363.0" y2="438.17540966287265" /><line fill="none" stroke="#000000" stroke-linecap="round" stroke-width="4" x1="273.3616114660535" x2="294.06713507425513" y1="438.17540966287265" y2="515.4494757659982" /><line fill="none" stroke="#000000" stroke-linecap="round" stroke-width="4" x1="266.0" x2="293.3616114660535" y1="363.0" y2="438.17540966287265" /><line fill="none" stroke="#000000" stroke-linecap="round" stroke-width="4" x1="293.3616114660535" x2="314.06713507425513" y1="438.17540966287265" y2="515.4494757659982" /></svg>