<?xml version="1.0" encoding="utf-8" ?>
<svg baseProfile="full" height="512px" version="1.1" viewBox="0 0 512 512" width="512px" xmlns="http://www.w3.org/2000/svg" xmlns:ev="http://www.w3.org/2001/xml-events" xmlns:xlink="http://www.w3.org/1999/xlink"><defs /><circle cx="256" cy="213.0" fill="none" r="32.0" stroke="#000000" stroke-width="4" /><line fill="none" stroke="#000000" stroke-linecap="round" stroke-width="4" x1="256" x2="256" y1="245.0" y2="365.0" /><line fill="none" stroke="#000000" stroke-linecap="round" stroke-width="4" x1="248.0" x2="229.88266684282354" y1="255.0" y2="322.6148078402348" /><line fill="none" stroke="#000000" stroke-linecap="round" stroke-width="4" x1="229.88266684282354" x2="229.88266684282354" y1="322.6148078402348" y2="382.6148078402348" /><line fill="none" stroke="#000000" stroke-linecap="round" stroke-width="4" x1="264.0" x2="245.88266684282354" y1="255.0" y2="322.6148078402348" /><line fill="none" stroke="#000000" stroke-linecap="round" stroke-width="4" x1="245.88266684282354" x2="245.88266684282354" y1="322.6148078402348" y2="382.6148078402348" /><line fill="none" stroke="#000000" stroke-linecap="round" stroke-width="4" x1="246.0" x2="170.82459033712735" y1="365.0" y2="392.3616114660535" /><line fill="none" stroke="#000000" stroke-linecap="round" stroke-width="4" x1="170.82459033712735" x2="170.82459033712735" y1="392.3616114660535" y2="472.3616114660535" /><line fill="none" stroke="#000000" stroke-linecap="round" stroke-width="4" x1="266.0" x2="341.17540966287265" y1="365.0" y2="392.3616114660535" /><line fill="none" stroke="#000000" stroke-linecap="round" stroke-width="4" x1="341.17540966287265" x2="341.17540966287265" y1="392.3616114660535" y2="472.3616114660535" /><line fill="none" stroke="#000000" stroke-linecap="round" stroke-width="4" x1="248.0" x2="203.00486732194224" y1="255.0" y2="308.6231110183285" /><line fill="none" stroke="#000000" stroke-linecap="round" stroke-width="4" x1="203.00486732194224" x2="262.09333250267474" y1="308.6231110183285" y2="319.04200167834426" /><line fill="none" stroke="#000000" stroke-linecap="round" stroke-width="4" x1="264.0" x2="308.99513267805776" y1="255.0" y2="308.6231110183285" /><line fill="none" stroke="#000000" stroke-linecap="round" stroke-width="4" x1="308.99513267805776" x2="368.08359785879026" y1="308.6231110183285" y2="319.04200167834426" /><rect fill="none" height="8" rx="2" stroke="#000000" stroke-width="4" width="64" x="224" y="357.0" /><path d="M 226 357.0 L 230 325.0 L 282 325.0 L 286 357.0" fill="none" stroke="#000000" stroke-linecap="round" stroke-linejoin="round" stroke-width="3" /></svg>