<?xml version="1.0" encoding="utf-8" ?>
<svg baseProfile="full" height="512px" version="1.1" viewBox="0 0 512 512" width="512px" xmlns="http://www.w3.org/2000/svg" xmlns:ev="http://www.w3.org/2001/xml-events" xmlns:xlink="http://www.w3.org/1999/xlink"><defs /><circle cx="256" cy="180" fill="none" r="40" stroke="#000000" stroke-width="4" /><path d="M 225 155 L 210 110 L 242 148" fill="none" stroke="#000000" stroke-linecap="round" stroke-linejoin="round" stroke-width="4" /><path d="M 287 155 L 302 110 L 270 148" fill="none" stroke="#000000" stroke-linecap="round" stroke-linejoin="round" stroke-width="4" /><circle cx="242" cy="174" fill="#000000" r="5" stroke="#000000" stroke-width="3" /><circle cx="270" cy="174" fill="#000000" r="5" stroke="#000000" stroke-width="3" /><path d="M 252 190 L 256 196 L 260 190" fill="none" stroke="#000000" stroke-linecap="round" stroke-linejoin="round" stroke-width="2.5" /><ellipse cx="256" cy="310" fill="none" rx="50" ry="70" stroke="#000000" stroke-width="4" /><line fill="none" stroke="#000000" stroke-linecap="round" stroke-width="4" x1="214" x2="206" y1="360" y2="420" /><line fill="none" stroke="#000000" stroke-linecap="round" stroke-width="4" x1="214" x2="214" y1="360" y2="420" /><line fill="none" stroke="#000000" stroke-linecap="round" stroke-width="4" x1="298" x2="298" y1="360" y2="420" /><line fill="none" stroke="#000000" stroke-linecap="round" stroke-width="4" x1="298" x2="306" y1="360" y2="420" /><path d="M 305 300 Q 360 280 350 230 Q 345 200 370 180" fill="none" stroke="#000000" stroke-linecap="round" stroke-linejoin="round" stroke-width="4" /><line fill="none" stroke="#000000" stroke-linecap="round" stroke-width="2" x1="220" x2="190" y1="190" y2="185" /><line fill="none" stroke="#000000" stroke-linecap="round" stroke-width="2" x1="220" x2="190" y1="196" y2="200" /><line fill="none" stroke="#000000" stroke-linecap="round" stroke-width="2" x1="292" x2="322" y1="190" y2="185" /><line fill="none" stroke="#000000" stroke-linecap="round" stroke-width="2" x1="292" x2="322" y1="196" y2="200" /></svg>