<?xml version="1.0" encoding="utf-8" ?>
<svg baseProfile="full" height="512px" version="1.1" viewBox="0 0 512 512" width="512px" xmlns="http://www.w3.org/2000/svg" xmlns:ev="http://www.w3.org/2001/xml-events" xmlns:xlink="http://www.w3.org/1999/xlink"><defs /><rect fill="none" height="160" rx="0" stroke="#000000" stroke-width="4" width="160" x="176" y="176" /><rect fill="#000000" height="22.857142857142858" rx="0" stroke="#000000" stroke-width="0" width="22.857142857142858" x="176.0" y="176.0" /><rect fill="#000000" height="22.857142857142858" rx="0" stroke="#000000" stroke-width="0" width="22.857142857142858" x="198.85714285714286" y="176.0" /><rect fill="#000000" height="22.857142857142858" rx="0" stroke="#000000" stroke-width="0" width="22.857142857142858" x="221.71428571428572" y="176.0" /><rect fill="#000000" height="22.857142857142858" rx="0" stroke="#000000" stroke-width="0" width="22.857142857142858" x="176.0" y="198.85714285714286" /><rect fill="#000000" height="22.857142857142858" rx="0" stroke="#000000" stroke-width="0" width="22.857142857142858" x="198.85714285714286" y="198.85714285714286" /><rect fill="#000000" height="22.857142857142858" rx="0" stroke="#000000" stroke-width="0" width="22.857142857142858" x="221.71428571428572" y="198.85714285714286" /><rect fill="#000000" height="22.857142857142858" rx="0" stroke="#000000" stroke-width="0" width="22.857142857142858" x="176.0" y="221.71428571428572" /><rect fill="#000000" height="22.857142857142858" rx="0" stroke="#000000" stroke-width="0" width="22.857142857142858" x="198.85714285714286" y="221.71428571428572" /><rect fill="#000000" height="22.857142857142858" rx="0" stroke="#000000" stroke-width="0" width="22.857142857142858" x="221.71428571428572" y="221.71428571428572" /><rect fill="#000000" height="22.857142857142858" rx="0" stroke="#000000" stroke-width="0" width="22.857142857142858" x="267.42857142857144" y="176.0" /><rect fill="#000000" height="22.857142857142858" rx="0" stroke="#000000" stroke-width="0" width="22.857142857142858" x="290.2857142857143" y="176.0" /><rect fill="#000000" height="22.857142857142858" rx="0" stroke="#000000" stroke-width="0" width="22.857142857142858" x="313.1428571428571" y="176.0" /><rect fill="#000000" height="22.857142857142858" rx="0" stroke="#000000" stroke-width="0" width="22.857142857142858" x="267.42857142857144" y="198.85714285714286" /><rect fill="#000000" height="22.857142857142858" rx="0" stroke="#000000" stroke-width="0" width="22.857142857142858" x="290.2857142857143" y="198.85714285714286" /><rect fill="#000000" height="22.857142857142858" rx="0" stroke="#000000" stroke-width="0" width="22.857142857142858" x="313.1428571428571" y="198.85714285714286" /><rect fill="#000000" height="22.857142857142858" rx="0" stroke="#000000" stroke-width="0" width="22.857142857142858" x="267.42857142857144" y="221.71428571428572" /><rect fill="#000000" height="22.857142857142858" rx="0" stroke="#000000" stroke-width="0" width="22.857142857142858" x="290.2857142857143" y="221.71428571428572" /><rect fill="#000000" height="22.857142857142858" rx="0" stroke="#000000" stroke-width="0" width="22.857142857142858" x="313.1428571428571" y="221.71428571428572" /><rect fill="#000000" height="22.857142857142858" rx="0" stroke="#000000" stroke-width="0" width="22.857142857142858" x="176.0" y="267.42857142857144" /><rect fill="#000000" height="22.857142857142858" rx="0" stroke="#000000" stroke-width="0" width="22.857142857142858" x="198.85714285714286" y="267.42857142857144" /><rect fill="#000000" height="22.857142857142858" rx="0" stroke="#000000" stroke-width="0" width="22.857142857142858" x="221.71428571428572" y="267.42857142857144" /><rect fill="#000000" height="22.857142857142858" rx="0" stroke="#000000" stroke-width="0" width="22.857142857142858" x="176.0" y="290.2857142857143" /><rect fill="#000000" height="22.857142857142858" rx="0" stroke="#000000" stroke-width="0" width="22.857142857142858" x="198.85714285714286" y="290.2857142857143" /><rect fill="#000000" height="22.857142857142858" rx="0" stroke="#000000" stroke-width="0" width="22.857142857142858" x="221.71428571428572" y="290.2857142857143" /><rect fill="#000000" height="22.857142857142858" rx="0" stroke="#000000" stroke-width="0" width="22.857142857142858" x="176.0" y="313.1428571428571" /><rect fill="#000000" height="22.857142857142858" rx="0" stroke="#000000" stroke-width="0" width="22.857142857142858" x="198.85714285714286" y="313.1428571428571" /><rect fill="#000000" height="22.857142857142858" rx="0" stroke="#000000" stroke-width="0" width="22.857142857142858" x="221.71428571428572" y="313.1428571428571" /><rect fill="#000000" height="22.857142857142858" rx="0" stroke="#000000" stroke-width="0" width="22.857142857142858" x="176.0" y="244.57142857142856" /><rect fill="#000000" height="22.857142857142858" rx="0" stroke="#000000" stroke-width="0" width="22.857142857142858" x="198.85714285714286" y="244.57142857142856" /><rect fill="#000000" height="22.857142857142858" rx="0" stroke="#000000" stroke-width="0" width="22.857142857142858" x="267.42857142857144" y="244.57142857142856" /><rect fill="#000000" height="22.857142857142858" rx="0" stroke="#000000" stroke-width="0" width="22.857142857142858" x="290.2857142857143" y="244.57142857142856" /><rect fill="#000000" height="22.857142857142858" rx="0" stroke="#000000" stroke-width="0" width="22.857142857142858" x="313.1428571428571" y="244.57142857142856" /><rect fill="#000000" height="22.857142857142858" rx="0" stroke="#000000" stroke-width="0" width="22.857142857142858" x="244.57142857142856" y="267.42857142857144" /><rect fill="#000000" height="22.857142857142858" rx="0" stroke="#000000" stroke-width="0" width="22.857142857142858" x="244.57142857142856" y="290.2857142857143" /><rect fill="#000000" height="22.857142857142858" rx="0" stroke="#000000" stroke-width="0" width="22.857142857142858" x="244.57142857142856" y="313.1428571428571" /><rect fill="#000000" height="22.857142857142858" rx="0" stroke="#000000" stroke-width="0" width="22.857142857142858" x="244.57142857142856" y="198.85714285714286" /><rect fill="#000000" height="22.857142857142858" rx="0" stroke="#000000" stroke-width="0" width="22.857142857142858" x="244.57142857142856" y="221.71428571428572" /><rect fill="#000000" height="22.857142857142858" rx="0" stroke="#000000" stroke-width="0" width="22.857142857142858" x="267.42857142857144" y="267.42857142857144" /><rect fill="#000000" height="22.857142857142858" rx="0" stroke="#000000" stroke-width="0" width="22.857142857142858" x="290.2857142857143" y="290.2857142857143" /><rect fill="#000000" height="22.857142857142858" rx="0" stroke="#000000" stroke-width="0" width="22.857142857142858" x="313.1428571428571" y="313.1428571428571" /><rect fill="#000000" height="22.857142857142858" rx="0" stroke="#000000" stroke-width="0" width="22.857142857142858" x="313.1428571428571" y="267.42857142857144" /><rect fill="#000000" height="22.857142857142858" rx="0" stroke="#000000" stroke-width="0" width="22.857142857142858" x="267.42857142857144" y="313.1428571428571" /><rect fill="#000000" height="22.857142857142858" rx="0" stroke="#000000" stroke-width="0" width="22.857142857142858" x="198.85714285714286" y="244.57142857142856" /><rect fill="#000000" height="22.857142857142858" rx="0" stroke="#000000" stroke-width="0" width="22.857142857142858" x="244.57142857142856" y="198.85714285714286" /><rect fill="#000000" height="22.857142857142858" rx="0" stroke="#000000" stroke-width="0" width="22.857142857142858" x="244.57142857142856" y="244.57142857142856" /><rect fill="#000000" height="22.857142857142858" rx="0" stroke="#000000" stroke-width="0" width="22.857142857142858" x="244.57142857142856" y="244.57142857142856" /><rect fill="#000000" height="22.857142857142858" rx="0" stroke="#000000" stroke-width="0" width="22.857142857142858" x="290.2857142857143" y="244.57142857142856" /><rect fill="#000000" height="22.857142857142858" rx="0" stroke="#000000" stroke-width="0" width="22.857142857142858" x="244.57142857142856" y="290.2857142857143" /></svg>