<?xml version="1.0" encoding="utf-8" ?>
<svg baseProfile="full" height="512px" version="1.1" viewBox="0 0 512 512" width="512px" xmlns="http://www.w3.org/2000/svg" xmlns:ev="http://www.w3.org/2001/xml-events" xmlns:xlink="http://www.w3.org/1999/xlink"><defs /><rect fill="none" height="90" rx="4" stroke="#000000" stroke-width="4" width="160" x="176" y="196" /><path d="M 161 196 L 351 196 L 346 181 L 166 181 Z" fill="none" stroke="#000000" stroke-linecap="round" stroke-linejoin="round" stroke-width="3" /><circle cx="256" cy="226" fill="none" r="16" stroke="#000000" stroke-width="3" /><line fill="none" stroke="#000000" stroke-linecap="round" stroke-width="2" x1="256" x2="256" y1="226" y2="236" /><line fill="none" stroke="#000000" stroke-linecap="round" stroke-width="2" x1="256" x2="264" y1="226" y2="226" /><rect fill="none" height="30" rx="2" stroke="#000000" stroke-width="2" width="30" x="241" y="251" /><line fill="none" stroke="#000000" stroke-linecap="round" stroke-width="3" x1="136" x2="376" y1="286" y2="286" /><line fill="none" stroke="#000000" stroke-linecap="round" stroke-width="2" x1="136" x2="376" y1="301" y2="301" /><line fill="none" stroke="#000000" stroke-linecap="round" stroke-width="2" x1="136" x2="376" y1="326" y2="326" /><line fill="none" stroke="#000000" stroke-linecap="round" stroke-width="2" x1="136" x2="376" y1="341" y2="341" /><line fill="none" stroke="#000000" stroke-linecap="round" stroke-width="2" x1="156" x2="156" y1="321" y2="346" /><line fill="none" stroke="#000000" stroke-linecap="round" stroke-width="2" x1="191" x2="191" y1="321" y2="346" /><line fill="none" stroke="#000000" stroke-linecap="round" stroke-width="2" x1="226" x2="226" y1="321" y2="346" /><line fill="none" stroke="#000000" stroke-linecap="round" stroke-width="2" x1="261" x2="261" y1="321" y2="346" /><line fill="none" stroke="#000000" stroke-linecap="round" stroke-width="2" x1="296" x2="296" y1="321" y2="346" /><line fill="none" stroke="#000000" stroke-linecap="round" stroke-width="2" x1="331" x2="331" y1="321" y2="346" /><line fill="none" stroke="#000000" stroke-linecap="round" stroke-width="2" x1="366" x2="366" y1="321" y2="346" /></svg>