<?xml version="1.0" encoding="utf-8" ?>
<svg baseProfile="full" height="512px" version="1.1" viewBox="0 0 512 512" width="512px" xmlns="http://www.w3.org/2000/svg" xmlns:ev="http://www.w3.org/2001/xml-events" xmlns:xlink="http://www.w3.org/1999/xlink"><defs /><rect fill="none" height="50" rx="3" stroke="#000000" stroke-width="4" width="200" x="156" y="231" /><path d="M 246 281 L 246 286 L 266 286 L 266 281" fill="none" stroke="#000000" stroke-linecap="round" stroke-linejoin="round" stroke-width="2" /><rect fill="none" height="30" rx="1" stroke="#000000" stroke-width="2" width="18" x="171" y="238" /><rect fill="none" height="30" rx="1" stroke="#000000" stroke-width="2" width="18" x="196" y="238" /><rect fill="none" height="30" rx="1" stroke="#000000" stroke-width="2" width="18" x="221" y="238" /><rect fill="none" height="30" rx="1" stroke="#000000" stroke-width="2" width="18" x="246" y="238" /><rect fill="none" height="30" rx="1" stroke="#000000" stroke-width="2" width="18" x="271" y="238" /><rect fill="none" height="30" rx="1" stroke="#000000" stroke-width="2" width="18" x="296" y="238" /><rect fill="none" height="30" rx="1" stroke="#000000" stroke-width="2" width="18" x="321" y="238" /><rect fill="none" height="30" rx="1" stroke="#000000" stroke-width="2" width="18" x="346" y="238" /><line fill="none" stroke="#000000" stroke-linecap="round" stroke-width="2" x1="166" x2="166" y1="281" y2="291" /><line fill="none" stroke="#000000" stroke-linecap="round" stroke-width="2" x1="182" x2="182" y1="281" y2="291" /><line fill="none" stroke="#000000" stroke-linecap="round" stroke-width="2" x1="198" x2="198" y1="281" y2="291" /><line fill="none" stroke="#000000" stroke-linecap="round" stroke-width="2" x1="214" x2="214" y1="281" y2="291" /><line fill="none" stroke="#000000" stroke-linecap="round" stroke-width="2" x1="230" x2="230" y1="281" y2="291" /><line fill="none" stroke="#000000" stroke-linecap="round" stroke-width="2" x1="246" x2="246" y1="281" y2="291" /><line fill="none" stroke="#000000" stroke-linecap="round" stroke-width="2" x1="262" x2="262" y1="281" y2="291" /><line fill="none" stroke="#000000" stroke-linecap="round" stroke-width="2" x1="278" x2="278" y1="281" y2="291" /><line fill="none" stroke="#000000" stroke-linecap="round" stroke-width="2" x1="294" x2="294" y1="281" y2="291" /><line fill="none" stroke="#000000" stroke-linecap="round" stroke-width="2" x1="310" x2="310" y1="281" y2="291" /><line fill="none" stroke="#000000" stroke-linecap="round" stroke-width="2" x1="326" x2="326" y1="281" y2="291" /><line fill="none" stroke="#000000" stroke-linecap="round" stroke-width="2" x1="342" x2="342" y1="281" y2="291" /></svg>