<?xml version="1.0" encoding="utf-8" ?>
<svg baseProfile="full" height="512px" version="1.1" viewBox="0 0 512 512" width="512px" xmlns="http://www.w3.org/2000/svg" xmlns:ev="http://www.w3.org/2001/xml-events" xmlns:xlink="http://www.w3.org/1999/xlink"><defs /><rect fill="none" height="220" rx="4" stroke="#000000" stroke-width="4" width="120" x="196" y="146" /><rect fill="none" height="28" rx="2" stroke="#000000" stroke-width="2" width="100" x="206" y="156" /><circle cx="291" cy="166" fill="none" r="3" stroke="#000000" stroke-width="2" /><circle cx="291" cy="176" fill="none" r="3" stroke="#000000" stroke-width="2" /><line fill="none" stroke="#000000" stroke-linecap="round" stroke-width="2" x1="216" x2="266" y1="170" y2="170" /><rect fill="none" height="28" rx="2" stroke="#000000" stroke-width="2" width="100" x="206" y="191" /><circle cx="291" cy="201" fill="none" r="3" stroke="#000000" stroke-width="2" /><circle cx="291" cy="211" fill="none" r="3" stroke="#000000" stroke-width="2" /><line fill="none" stroke="#000000" stroke-linecap="round" stroke-width="2" x1="216" x2="266" y1="205" y2="205" /><rect fill="none" height="28" rx="2" stroke="#000000" stroke-width="2" width="100" x="206" y="226" /><circle cx="291" cy="236" fill="none" r="3" stroke="#000000" stroke-width="2" /><circle cx="291" cy="246" fill="none" r="3" stroke="#000000" stroke-width="2" /><line fill="none" stroke="#000000" stroke-linecap="round" stroke-width="2" x1="216" x2="266" y1="240" y2="240" /><rect fill="none" height="28" rx="2" stroke="#000000" stroke-width="2" width="100" x="206" y="261" /><circle cx="291" cy="271" fill="none" r="3" stroke="#000000" stroke-width="2" /><circle cx="291" cy="281" fill="none" r="3" stroke="#000000" stroke-width="2" /><line fill="none" stroke="#000000" stroke-linecap="round" stroke-width="2" x1="216" x2="266" y1="275" y2="275" /><rect fill="none" height="28" rx="2" stroke="#000000" stroke-width="2" width="100" x="206" y="296" /><circle cx="291" cy="306" fill="none" r="3" stroke="#000000" stroke-width="2" /><circle cx="291" cy="316" fill="none" r="3" stroke="#000000" stroke-width="2" /><line fill="none" stroke="#000000" stroke-linecap="round" stroke-width="2" x1="216" x2="266" y1="310" y2="310" /><rect fill="none" height="28" rx="2" stroke="#000000" stroke-width="2" width="100" x="206" y="331" /><circle cx="291" cy="341" fill="none" r="3" stroke="#000000" stroke-width="2" /><circle cx="291" cy="351" fill="none" r="3" stroke="#000000" stroke-width="2" /><line fill="none" stroke="#000000" stroke-linecap="round" stroke-width="2" x1="216" x2="266" y1="345" y2="345" /><line fill="none" stroke="#000000" stroke-linecap="round" stroke-width="2" x1="198" x2="204" y1="166" y2="166" /><line fill="none" stroke="#000000" stroke-linecap="round" stroke-width="2" x1="308" x2="314" y1="166" y2="166" /><line fill="none" stroke="#000000" stroke-linecap="round" stroke-width="2" x1="198" x2="204" y1="216" y2="216" /><line fill="none" stroke="#000000" stroke-linecap="round" stroke-width="2" x1="308" x2="314" y1="216" y2="216" /><line fill="none" stroke="#000000" stroke-linecap="round" stroke-width="2" x1="198" x2="204" y1="266" y2="266" /><line fill="none" stroke="#000000" stroke-linecap="round" stroke-width="2" x1="308" x2="314" y1="266" y2="266" /><line fill="none" stroke="#000000" stroke-linecap="round" stroke-width="2" x1="198" x2="204" y1="316" y2="316" /><line fill="none" stroke="#000000" stroke-linecap="round" stroke-width="2" x1="308" x2="314" y1="316" y2="316" /></svg>